<?xml version="1.0" encoding="utf-8"?>
<!DOCTYPE svg PUBLIC "-//W3C//DTD SVG 1.0//EN" "http://www.w3.org/TR/2001/REC-SVG-20010904/DTD/svg10.dtd">
<svg version="1.0" xmlns="http://www.w3.org/2000/svg" width="288px" height="281px" viewBox="0 0 288 281" preserveAspectRatio="xMidYMid meet">
 <g fill="#00732e">
  <path d="M0 140.5 l0 -140.5 144 0 144 0 0 140.5 0 140.5 -144 0 -144 0 0 -140.5z m168.2 124 c35.2 -7.9 64.4 -29.4 84 -61.6 11.3 -18.6 18.9 -49.4 17.3 -69.9 -2.2 -27.9 -12.2 -51.9 -31.4 -75.4 -23.2 -28.5 -65.8 -47.4 -102 -45.3 -30.6 1.8 -62.1 16.4 -84.6 39.1 -14.3 14.4 -22.5 27.2 -29.6 46.4 -12.2 32.9 -9.9 66.7 6.8 99.7 19.4 38.3 59 65.2 102.8 69.9 8.2 0.8 26.7 -0.6 36.7 -2.9z"/>
  <path d="M127 262 c-19.5 -1.6 -36.3 -7.7 -54.2 -19.7 -22.8 -15.3 -37.6 -34.5 -47 -61.3 -4.6 -13.1 -6.1 -23.4 -6.1 -41.5 0 -22.7 3.1 -37.1 11.9 -54.8 16.1 -32.5 43 -54.1 80.4 -64.4 9.6 -2.6 49.4 -2.6 59.5 0 48.8 12.8 83.4 49.6 91.5 97.1 1.6 9.2 1.2 36.7 -0.6 47.1 -5.9 34.4 -29.7 66.9 -61.4 84.2 -19.9 10.8 -46.6 15.6 -74 13.3z m-25 -19.3 c0 -0.2 -2.3 -1.9 -5.1 -3.7 -12.5 -8.1 -27.9 -25.6 -27.9 -31.6 0 -3.2 0.2 -3.4 3.3 -3.4 2.7 0 4.2 1.1 10.4 7.9 12.4 13.5 25.7 22.2 40.8 26.6 10.2 2.9 26.9 5 30.2 3.8 2.1 -0.8 1.9 -1.1 -3.3 -5.3 -3.1 -2.5 -11.7 -10.8 -19.1 -18.4 -20.2 -21 -30.3 -28.4 -46 -33.7 -10.4 -3.5 -20.6 -4.6 -28.6 -2.9 -6.7 1.3 -6.6 0.8 -1.2 12.6 7.6 16.7 23.9 35.5 38.1 44.1 6.4 3.9 8.4 4.8 8.4 4z m78.7 -6.1 c23.2 -9.1 41.3 -30.5 52.6 -62.2 l2.6 -7.2 -3.7 -0.6 c-20.4 -3.3 -57.9 5.7 -100.5 24.3 l-4.9 2.1 8.4 9.1 8.3 9.2 9.5 -0.6 c21.3 -1.4 40.1 -10.7 57.1 -28.2 6.2 -6.3 7.8 -7.5 10.6 -7.5 3.1 0 3.3 0.2 3.3 3.4 0 1.9 -0.9 4.6 -2.2 6.2 -16.1 21.2 -37.7 34.2 -59.8 36 l-8.1 0.7 4.3 4.4 c3.5 3.6 15.3 13.3 16.2 13.3 0.1 0 3 -1.1 6.3 -2.4z m-48.3 -60.5 l12.6 -5.8 -5.8 -1.6 c-26.7 -7.4 -57 -7.9 -83.2 -1.3 l-5.5 1.4 11.6 0.1 c18.7 0.2 34.2 3.6 47.9 10.5 3.6 1.8 7.2 3.1 8.1 2.9 0.9 -0.2 7.4 -3 14.3 -6.2z m36.7 -17.6 c2.4 -0.7 6.3 -1.9 8.7 -2.5 l4.2 -1.1 0 -16.2 -0.1 -16.2 -12.9 -8.8 c-7.2 -4.8 -13 -9.4 -13 -10.2 0 -0.7 -2.4 -2.8 -5.4 -4.5 l-5.5 -3.1 -5.5 3.1 c-3 1.7 -5.6 3.8 -5.8 4.7 -0.2 0.9 -5.9 5.5 -12.8 10.2 l-12.5 8.7 0 12.4 0 12.5 10 1.1 c11.8 1.4 24.7 4.4 36.5 8.4 10.3 3.5 8.8 3.3 14.1 1.5z m54.9 -45.5 c-0.8 -0.5 -2.8 -1 -4.5 -1 -2.3 0 -2.7 0.3 -1.5 1 0.8 0.5 2.9 1 4.5 1 2.3 0 2.7 -0.3 1.5 -1z m-14 -20 c0 -0.6 -1.1 -0.8 -2.7 -0.4 -4 1 -4.1 1.4 -0.5 1.4 1.8 0 3.2 -0.5 3.2 -1z m-19 -17 c1.3 -0.9 1.3 -1 0 -1 -0.8 0 -2.2 0.5 -3 1 -1.3 0.9 -1.3 1 0 1 0.8 0 2.2 -0.5 3 -1z m36 -2.2 c0 -0.7 -0.5 -2 -1 -2.8 -0.8 -1.2 -1 -0.9 -1 1.3 0 1.5 0.5 2.7 1 2.7 0.6 0 1 -0.6 1 -1.2z m-121 -31.2 c0 -0.2 -1.3 -0.9 -3 -1.5 -1.6 -0.5 -3 -0.6 -3 -0.1 0 0.7 1 1.1 5.3 1.9 0.4 0 0.7 -0.1 0.7 -0.3z"/>
 </g>
 <g fill="#faffd7">
  <path d="M120 252.9 c-18.6 -3.9 -31.8 -11 -45 -23.9 -12.2 -11.9 -19.8 -23.6 -26 -39.7 -3.4 -8.7 -3.4 -8.6 5 -10.4 9 -1.9 24 -0.6 34.2 2.9 15.8 5.5 26 12.9 45.7 33.4 13.8 14.3 24.1 23.3 30.5 26.5 l4 2 -8.9 1.3 c-6.8 1 -11.4 1 -19.4 0.2 -25.3 -2.6 -42.9 -11.4 -60.7 -30.5 -8.1 -8.7 -8.7 -8.6 -1.8 0.3 22.5 29.7 57.1 40.8 95.9 30.9 16 -4 30.2 -12.6 43 -26 17.2 -18 25.2 -37.7 26.2 -64.4 0.5 -12.5 0.3 -15.2 -2 -25 -7.2 -31.5 -26.7 -57 -53.7 -70.4 -19.1 -9.5 -27.3 -11.5 -47.5 -11.5 -13 0 -17.5 0.4 -24 2.1 -22.1 5.7 -44.5 18.1 -48.4 26.8 -2 4.5 -5.7 8.5 -10.8 11.6 -4.4 2.8 -6 1.5 -4.4 -3.3 1.5 -4.4 6.4 -9 11.9 -11.2 2.4 -0.9 6 -3.2 8 -5.2 10.7 -10.4 30.5 -19.8 48.5 -22.9 15.9 -2.9 34.6 -1.7 49.8 3.1 17.5 5.4 31.9 14.3 45.5 27.8 13.3 13.4 20.6 26.1 27 47.1 2.6 8.4 2.8 10.3 2.8 27 0.1 15.5 -0.2 19.2 -2.2 26.5 -2.4 9.3 -8.2 22.2 -13.6 30.3 -14.1 21.2 -41.4 40.3 -64.7 45.2 -10.4 2.2 -32.9 1.9 -44.9 -0.6z"/>
  <path d="M168.7 240 c-4.7 -3 -22.7 -19.6 -22.7 -21 0 -0.4 4.6 -1 10.3 -1.3 22 -1.2 41.9 -11.8 58.1 -30.7 7.8 -9.1 7.3 -10 -0.9 -1.7 -21 21.2 -44.3 30.5 -71.6 28.8 -1.6 -0.1 -20.9 -20.5 -20.9 -22.1 0 -0.9 18.9 -9.1 33.3 -14.4 11.6 -4.3 30 -9.7 41.2 -12.1 9.3 -2 34.1 -3.1 40 -1.8 3.7 0.8 4 1.1 3.7 3.8 -0.5 3.9 -6.6 20.4 -10.5 28 -10.9 21.7 -27 37.2 -46.4 44.6 -4.1 1.6 -7.8 2.9 -8.2 2.9 -0.4 0 -2.8 -1.3 -5.4 -3z"/>
  <path d="M109.5 183.6 c-16.8 -8.7 -32.9 -12.1 -52.8 -11.3 l-12.7 0.5 -0.6 -2.5 c-0.9 -3.3 0.1 -3.8 11.1 -6.2 31.5 -7 64.3 -5.9 93.5 3.2 l7.5 2.4 -8 3.7 c-4.4 2.1 -12.5 5.8 -18 8.3 -5.5 2.5 -10.4 4.9 -11 5.3 -0.5 0.4 -4.6 -1.2 -9 -3.4z"/>
  <path d="M155 160.8 c-14.8 -4.7 -27.5 -7.7 -39 -9.1 l-10.5 -1.2 -0.3 -13.3 c-0.2 -12 -0.9 -15.1 -2.7 -12.2 -0.9 1.4 -2.5 1.2 -2.5 -0.3 0 -0.8 6.8 -6.1 15.1 -11.8 8.3 -5.7 15.4 -11.2 15.8 -12.1 0.4 -1 3.7 -3.6 7.5 -5.8 l6.8 -4 6.8 4.1 c3.8 2.2 7 4.7 7.2 5.6 0.2 0.8 7.2 6.3 15.7 12.2 8.5 5.8 15.7 11.3 15.9 12 0.3 1 0 1.2 -1.4 0.7 -1.1 -0.4 -2.3 -0.8 -2.9 -0.9 -0.6 -0.1 -1.1 6.1 -1.3 16.5 l-0.2 16.7 -4.3 1.1 c-2.3 0.6 -6.4 1.8 -9.2 2.7 -2.7 0.9 -5.4 1.7 -6 1.9 -0.5 0.2 -5.3 -1.1 -10.5 -2.8z"/>
  <path d="M214.5 116.1 c-1.2 -0.5 -2.7 -1.6 -3.4 -2.5 -2.2 -2.6 0 -4 7.2 -4.4 4.7 -0.3 7.4 0.1 11.1 1.7 l4.9 2.2 -2.4 1.7 c-2.7 1.9 -14.1 2.7 -17.4 1.3z"/>
  <path d="M239.6 106.4 c-2.1 -5.4 1.6 -21.4 4.9 -21.4 2 0 3.8 6.6 3 10.8 -0.7 4 -5.1 12.2 -6.4 12.2 -0.5 0 -1.2 -0.7 -1.5 -1.6z"/>
  <path d="M200.4 97 c-1.7 -0.6 -3.7 -1.6 -4.4 -2.4 -1 -1.3 -0.5 -1.8 2.7 -3.1 2.1 -0.9 5.6 -1.9 7.8 -2.2 4.3 -0.5 12.5 1.2 12.5 2.7 0 1.6 -6.5 4.8 -11 5.4 -2.5 0.3 -5.9 0.1 -7.6 -0.4z"/>
  <path d="M250 89.8 c0 -0.3 -0.7 -2.2 -1.5 -4.2 -0.8 -2 -1.1 -3.6 -0.6 -3.6 1.1 0 3.5 6.9 2.7 7.7 -0.3 0.4 -0.6 0.4 -0.6 0.1z"/>
  <path d="M223.6 81 c-2.6 -6.6 -1.6 -21.4 1.4 -19.5 2.1 1.3 5 8.5 4.9 12.2 -0.1 4.4 -2.1 10.5 -3.6 11 -0.6 0.2 -1.8 -1.4 -2.7 -3.7z"/>
  <path d="M73.8 82.5 c-0.9 -0.9 0.6 -4.8 3.7 -9.2 2.7 -4 10.2 -9.6 11.6 -8.7 2.3 1.4 -3.3 13 -7.5 15.7 -2.9 2 -6.9 3 -7.8 2.2z"/>
  <path d="M180.3 79 c-3.4 -1.4 -2.8 -2.4 2.8 -5.1 3.8 -1.7 6.8 -2.4 11.1 -2.3 8.3 0.1 9.2 1.6 3.2 5.3 -3.8 2.5 -5.9 3.1 -9.8 3 -2.8 0 -6.1 -0.4 -7.3 -0.9z"/>
  <path d="M102 69.3 c0 -4.3 6.6 -12.5 12.3 -15.4 3.6 -1.9 3.7 -1.9 3.7 0 0 2.8 -2.9 9.3 -5.3 11.9 -4.3 4.7 -10.7 6.7 -10.7 3.5z"/>
  <path d="M157.6 68.2 c-0.7 -1.2 4 -5.5 8.3 -7.7 1.8 -0.9 5.8 -1.9 8.8 -2.2 l5.5 -0.6 -1.7 2.7 c-3.3 5 -9.8 8.6 -15.4 8.6 -2.7 0 -5.2 -0.4 -5.5 -0.8z"/>
  <path d="M131 63.7 c0 -1.7 6.7 -8.1 10.5 -9.9 3.3 -1.7 9.5 -3.1 9.5 -2.2 0 2.6 -6.1 9.9 -10.2 12 -3.5 1.8 -9.8 1.9 -9.8 0.1z"/>
  <path d="M203.3 62.7 c-3.3 -3.6 -5.4 -8.6 -6 -14.2 -0.7 -6.2 0.4 -7.3 4.2 -4.3 3.7 2.9 5.5 7.6 5.5 14.2 0 6.4 -0.9 7.4 -3.7 4.3z"/>
  <path d="M70.2 56.5 c-1.8 -0.8 -4.2 -2.1 -5.3 -2.9 -2.1 -1.4 -2.1 -1.5 0.9 -3 5.5 -2.8 12.2 -1.6 18.5 3.4 2.2 1.8 2.6 2.5 1.5 3.1 -2.1 1.4 -12 1 -15.6 -0.6z"/>
  <path d="M60 50.6 c0 -1.3 4.6 -4.6 6.5 -4.6 1.1 0 -0.5 1.9 -3.5 4 -2.5 1.8 -3 1.9 -3 0.6z"/>
  <path d="M176.5 48.7 c-4.1 -3 -5.2 -4.4 -8.1 -10.4 -2.9 -6.1 -2.6 -7.7 1.4 -6.2 5.7 2.2 11.1 10 11.2 16.2 0 3.2 -0.6 3.3 -4.5 0.4z"/>
  <path d="M103.7 45.8 c-5.4 -0.7 -11.7 -3.8 -11.7 -5.8 0 -1.5 7.1 -3.2 10.7 -2.7 3.9 0.7 12.5 5.7 12 7.1 -0.6 1.7 -5 2.2 -11 1.4z"/>
  <path d="M144 42.1 c-4.9 -1.5 -8.9 -4.1 -11.4 -7.4 -1.5 -1.9 -2.6 -3.7 -2.6 -4 0 -1.2 8.4 -0.7 10.6 0.6 4.8 2.8 10.4 8.7 10.4 10.9 0 1 -3.6 0.9 -7 -0.1z"/>
 </g>
 <g fill="#404040">
  <path d="M118.5 277.4 c-29.4 -5.4 -54.6 -18.4 -75 -38.9 -38 -37.9 -50.6 -93.8 -32.9 -144.9 19 -54.8 70.9 -91.8 129.9 -92.7 7.7 -0.1 14.7 0 15.5 0.3 0.8 0.3 5 1.1 9.3 1.8 25.9 3.9 52 16.9 71.7 35.7 19.8 18.8 32.7 40.4 40 67 5.6 20.7 5.4 49.2 -0.6 70.3 -4.4 15.4 -11 30 -19.3 42.5 -6.2 9.4 -26.8 30.1 -36.1 36.2 -16.2 10.6 -33.6 18.2 -50.5 21.8 -11 2.4 -41 2.9 -52 0.9z m35.4 -3.5 c27.3 -2.5 54.1 -13.5 73.5 -30.2 22.6 -19.3 37.8 -43.6 45.8 -73.1 2 -7.1 2.2 -10.7 2.3 -29.6 0 -22.6 -0.6 -27.5 -5.7 -43 -10.7 -33.1 -36.2 -62.3 -68.5 -78.5 -39.8 -19.9 -87.9 -18.4 -126.8 4.2 -4.4 2.5 -8.2 4.9 -8.5 5.2 -0.3 0.4 -2.1 1.8 -4 3.1 -10.6 7.3 -24.1 21.3 -32.1 33.5 -4.1 6.2 -12.5 22.8 -15.3 30.2 -0.8 2.2 -2.4 7.6 -3.5 12 -10.8 43.8 1.4 90.7 32.4 124.1 19.2 20.7 47.9 36.4 74.1 40.6 17.4 2.8 21.2 2.9 36.3 1.5z"/>
  <path d="M128.5 270.4 c-23 -2.5 -44.3 -10.7 -63.5 -24.4 -47 -33.5 -66.3 -96.7 -46.1 -151.2 7.1 -19.2 15.3 -32 29.6 -46.4 33.1 -33.3 80.5 -46.7 125.4 -35.3 37.8 9.6 69.2 35.3 86.1 70.4 16.4 34.2 17 72.7 1.9 109.1 -7.8 18.8 -25 40.4 -41.6 52.4 -23.2 16.7 -46 24.6 -73.8 25.4 -7.7 0.2 -15.8 0.2 -18 0z m38 -13.6 c34.9 -7 64.4 -29.7 81.8 -62.8 9 -17 12.7 -33.1 12.7 -54.6 0 -20 -3.2 -34.6 -10.9 -50.4 -16.5 -33.4 -44.5 -55.9 -81.6 -65.7 -10 -2.6 -43.9 -2.6 -53.5 0 -17.7 4.9 -32.7 12.1 -46.4 22.4 -22.3 16.7 -39.4 45.2 -44.7 74.3 -1.6 9 -1.4 31.8 0.4 41.5 2.4 12.8 8.8 29.5 16.1 41.7 11.9 20.1 35.3 39.2 60 49.3 17.8 7.1 43.8 8.9 66.1 4.3z"/>
 </g>
</svg>